<?xml version="1.0" encoding="UTF-8" standalone="no"?>
<!-- Created with Inkscape (http://www.inkscape.org/) -->

<svg
   xmlns:dc="http://purl.org/dc/elements/1.1/"
   xmlns:cc="http://creativecommons.org/ns#"
   xmlns:rdf="http://www.w3.org/1999/02/22-rdf-syntax-ns#"
   xmlns:svg="http://www.w3.org/2000/svg"
   xmlns="http://www.w3.org/2000/svg"
   xmlns:sodipodi="http://sodipodi.sourceforge.net/DTD/sodipodi-0.dtd"
   xmlns:inkscape="http://www.inkscape.org/namespaces/inkscape"
   width="210mm"
   height="297mm"
   viewBox="0 0 210 297"
   version="1.1"
   id="svg8"
   inkscape:version="0.92.4 (5da689c313, 2019-01-14)"
   sodipodi:docname="logo.svg">
  <defs
     id="defs2" />
  <sodipodi:namedview
     id="base"
     pagecolor="#ffffff"
     bordercolor="#666666"
     borderopacity="1.0"
     inkscape:pageopacity="0.0"
     inkscape:pageshadow="2"
     inkscape:zoom="2.8284271"
     inkscape:cx="454.27185"
     inkscape:cy="536.71005"
     inkscape:document-units="mm"
     inkscape:current-layer="layer1"
     showgrid="false"
     inkscape:window-width="1920"
     inkscape:window-height="986"
     inkscape:window-x="-11"
     inkscape:window-y="-11"
     inkscape:window-maximized="1" />
  <metadata
     id="metadata5">
    <rdf:RDF>
      <cc:Work
         rdf:about="">
        <dc:format>image/svg+xml</dc:format>
        <dc:type
           rdf:resource="http://purl.org/dc/dcmitype/StillImage" />
        <dc:title></dc:title>
      </cc:Work>
    </rdf:RDF>
  </metadata>
  <g
     inkscape:label="Layer 1"
     inkscape:groupmode="layer"
     id="layer1">
    <rect
       style="fill:#ffb380;fill-opacity:1;stroke:none;stroke-width:0.66124731;stroke-opacity:1"
       id="rect815"
       width="90.022987"
       height="42.332443"
       x="72.803467"
       y="129.9458"
       inkscape:export-filename="C:\Users\Alexander\Desktop\barapass.png"
       inkscape:export-xdpi="535.81134"
       inkscape:export-ydpi="535.81134" />
    <text
       xml:space="preserve"
       style="font-style:normal;font-weight:normal;font-size:10.58333302px;line-height:1.25;font-family:sans-serif;letter-spacing:0px;word-spacing:0px;fill:#000000;fill-opacity:1;stroke:none;stroke-width:0.26458332"
       x="99.114456"
       y="156.96205"
       id="text819"
       inkscape:export-filename="C:\Users\Alexander\Desktop\barapass.png"
       inkscape:export-xdpi="535.81134"
       inkscape:export-ydpi="535.81134"><tspan
         sodipodi:role="line"
         id="tspan817"
         x="99.114456"
         y="156.96205"
         style="font-style:normal;font-variant:normal;font-weight:bold;font-stretch:normal;font-size:12.69999981px;font-family:'Microsoft Tai Le';-inkscape-font-specification:'Microsoft Tai Le Bold';stroke-width:0.26458332">barapass</tspan></text>
    <path
       style="fill:#000000;stroke-width:0.05829578"
       d="m 83.733663,158.96145 c -0.394407,-0.11983 -0.809664,-0.41644 -1.034694,-0.7391 -0.389717,-0.55879 -0.376617,-0.33825 -0.358637,-6.04 l 0.0163,-5.15632 0.1314,-0.27866 c 0.385517,-0.81763 1.075504,-1.19203 2.196785,-1.19203 h 0.577517 l 0.0255,-1.34092 c 0.0217,-1.1446 0.0442,-1.40846 0.15342,-1.8023 0.282237,-1.0175 0.924074,-1.98611 1.695551,-2.55877 1.535651,-1.13995 3.536339,-1.3411 5.23696,-0.52657 1.285941,0.61592 2.186948,1.69669 2.572125,3.08534 0.10924,0.39384 0.13171,0.6577 0.15343,1.8023 l 0.0255,1.34092 0.568987,6.6e-4 c 0.312947,4.5e-4 0.712924,0.0381 0.888844,0.084 0.419537,0.10934 0.899554,0.43833 1.124614,0.77091 0.367917,0.54367 0.356767,0.34603 0.339227,6.01212 l -0.016,5.15731 -0.13371,0.28378 c -0.217597,0.46182 -0.505167,0.75728 -0.941924,0.96775 l -0.394917,0.19032 -6.276674,0.0112 c -5.31384,0.008 -6.318534,-0.001 -6.549494,-0.0718 z m 9.492966,-14.57401 c -7.8e-4,-0.64234 -0.0287,-1.28396 -0.0622,-1.42582 -0.179267,-0.7615 -0.809214,-1.56032 -1.517901,-1.92482 -1.267821,-0.65209 -2.576175,-0.46538 -3.575349,0.51021 -0.780344,0.76192 -0.912314,1.17247 -0.912314,2.83814 v 1.17019 h 3.034582 3.034582 l -0.002,-1.1679 z"
       id="path843"
       inkscape:connector-curvature="0"
       sodipodi:nodetypes="cccccsccccccscccssccccscccccssccccc"
       inkscape:export-filename="C:\Users\Alexander\Desktop\barapass.png"
       inkscape:export-xdpi="535.81134"
       inkscape:export-ydpi="535.81134" />
    <text
       xml:space="preserve"
       style="font-style:normal;font-weight:normal;font-size:10.58333302px;line-height:1.25;font-family:sans-serif;letter-spacing:0px;word-spacing:0px;fill:#000000;fill-opacity:1;stroke:none;stroke-width:0.26458332"
       x="86.114647"
       y="156.30678"
       id="text819-3"
       inkscape:export-filename="C:\Users\Alexander\Desktop\barapass.png"
       inkscape:export-xdpi="535.81134"
       inkscape:export-ydpi="535.81134"><tspan
         sodipodi:role="line"
         id="tspan817-1"
         x="86.114647"
         y="156.30678"
         style="font-style:normal;font-variant:normal;font-weight:bold;font-stretch:normal;font-size:12.69999981px;font-family:'Microsoft Tai Le';-inkscape-font-specification:'Microsoft Tai Le Bold';fill:#ffffff;stroke-width:0.26458332">&gt;</tspan></text>
  </g>
</svg>
